<?xml version="1.0" encoding="utf-8"?>
<!-- Generator: Adobe Illustrator 16.0.0, SVG Export Plug-In . SVG Version: 6.00 Build 0)  -->
<!DOCTYPE svg PUBLIC "-//W3C//DTD SVG 1.1//EN" "http://www.w3.org/Graphics/SVG/1.1/DTD/svg11.dtd">
<svg version="1.1" id="Layer_1" xmlns="http://www.w3.org/2000/svg" xmlns:xlink="http://www.w3.org/1999/xlink" x="0px" y="0px"
	 width="21.209px" height="25.508px" viewBox="0 0 21.209 25.508" enable-background="new 0 0 21.209 25.508" xml:space="preserve">
<g>
	<g>
		<path d="M18.804,16.693c-0.7-1.012-1.051-2.15-1.051-3.418c0-1.154,0.33-2.213,0.99-3.173c0.354-0.521,0.934-1.124,1.735-1.809
			c-0.527-0.653-1.056-1.165-1.583-1.533c-0.954-0.664-2.035-0.996-3.243-0.996c-0.721,0-1.599,0.174-2.634,0.521
			c-0.995,0.348-1.721,0.521-2.178,0.521c-0.345,0-1.045-0.153-2.101-0.46c-1.066-0.307-1.965-0.46-2.695-0.46
			c-1.746,0-3.188,0.736-4.324,2.207C0.574,9.586,0,11.497,0,13.828c0,2.473,0.746,5.043,2.238,7.711
			c1.513,2.646,3.04,3.97,4.583,3.97c0.518,0,1.188-0.174,2.01-0.521c0.822-0.338,1.543-0.507,2.162-0.507
			c0.659,0,1.426,0.164,2.299,0.491c0.924,0.326,1.635,0.489,2.132,0.489c1.299,0,2.604-1.001,3.912-3.005
			c0.854-1.276,1.478-2.555,1.873-3.832C20.306,18.349,19.504,17.705,18.804,16.693z M13.627,4.844
			c0.64-0.644,1.111-1.349,1.416-2.115c0.294-0.767,0.441-1.461,0.441-2.085c0-0.041-0.002-0.092-0.008-0.153
			c-0.005-0.061-0.007-0.112-0.007-0.153c-0.011-0.031-0.023-0.087-0.038-0.169C15.416,0.087,15.403,0.031,15.393,0
			c-1.786,0.419-3.055,1.175-3.806,2.269c-0.762,1.104-1.157,2.417-1.188,3.939c0.68-0.062,1.208-0.148,1.583-0.261
			C12.53,5.764,13.079,5.396,13.627,4.844z"/>
	</g>
</g>
</svg>
