<svg xmlns="http://www.w3.org/2000/svg" width="40" height="43" viewBox="0 0 40 43">
  <metadata><?xpacket begin="﻿" id="W5M0MpCehiHzreSzNTczkc9d"?>
<x:xmpmeta xmlns:x="adobe:ns:meta/" x:xmptk="Adobe XMP Core 5.6-c138 79.159824, 2016/09/14-01:09:01        ">
   <rdf:RDF xmlns:rdf="http://www.w3.org/1999/02/22-rdf-syntax-ns#">
      <rdf:Description rdf:about=""/>
   </rdf:RDF>
</x:xmpmeta>
                                                                                                    
                                                                                                    
                                                                                                    
                                                                                                    
                                                                                                    
                                                                                                    
                                                                                                    
                                                                                                    
                                                                                                    
                                                                                                    
                                                                                                    
                                                                                                    
                                                                                                    
                                                                                                    
                                                                                                    
                                                                                                    
                                                                                                    
                                                                                                    
                                                                                                    
                                                                                                    
                           
<?xpacket end="w"?></metadata>
<defs>
    <style>
      .cls-1 {
        fill: #fff;
        fill-rule: evenodd;
      }
    </style>
  </defs>
  <path id="icon-calendar" class="cls-1" d="M2048.33,1108.12h5.34v5.38h-5.34v-5.38Zm8,0h5.34v5.38h-5.34v-5.38Zm8,0h5.34v5.38h-5.34v-5.38Zm-24,16.13h5.34v5.37h-5.34v-5.37Zm8,0h5.34v5.37h-5.34v-5.37Zm8,0h5.34v5.37h-5.34v-5.37Zm-8-8.06h5.34v5.37h-5.34v-5.37Zm8,0h5.34v5.37h-5.34v-5.37Zm8,0h5.34v5.37h-5.34v-5.37Zm-24,0h5.34v5.37h-5.34v-5.37Zm29.34-24.19v2.69h-5.34V1092h-18.66v2.69h-5.34V1092H2035v43h40v-43h-5.33Zm2.66,40.31h-34.66v-29.56h34.66v29.56Z" transform="translate(-2035 -1092)"/>
</svg>
