<?xml version="1.0" encoding="utf-8"?>
<!-- Generator: Adobe Illustrator 17.1.0, SVG Export Plug-In . SVG Version: 6.00 Build 0)  -->
<!DOCTYPE svg PUBLIC "-//W3C//DTD SVG 1.1//EN" "http://www.w3.org/Graphics/SVG/1.1/DTD/svg11.dtd">
<svg version="1.1" id="Layer_1" xmlns="http://www.w3.org/2000/svg" xmlns:xlink="http://www.w3.org/1999/xlink" x="0px" y="0px"
	 viewBox="0 0 77.745 63.167" enable-background="new 0 0 77.745 63.167" xml:space="preserve">
<g>
	<defs>
		<rect id="SVGID_1_" y="0" width="77.744" height="63.167"/>
	</defs>
	<clipPath id="SVGID_2_">
		<use xlink:href="#SVGID_1_"  overflow="visible"/>
	</clipPath>
	<path clip-path="url(#SVGID_2_)" d="M77.742,42.464c-0.041-5.236-0.549-10.834-1.235-13.613c-0.714-2.878-1.787-4.952-3.478-6.721
		c-1.477-1.547-3.184-2.629-5.634-3.974c-0.907-0.497-2.455-4.46-3.38-6.828c-0.843-2.155-1.638-4.19-2.552-5.542
		c-0.542-0.805-1.3-1.533-2.252-2.164c-3.42-2.267-10.572-3.621-19.131-3.621c-0.429,0-0.858,0.003-1.286,0.01
		C31.781,0.126,22.77,1.275,18.507,4.153c-0.947,0.64-1.701,1.376-2.24,2.19c-0.902,1.36-1.696,3.414-2.537,5.588
		c-0.934,2.411-2.496,6.447-3.438,6.99c-2.453,1.414-4.156,2.536-5.605,4.092c-1.676,1.801-2.74,3.886-3.45,6.765
		C0.552,32.57,0.044,38.185,0.003,43.43c-0.027,3.511,0.133,8.452,1.05,12.045c0.842,3.298,3.329,5.773,7.004,6.967
		c1.458,0.475,3.092,0.726,4.726,0.726c0.446,0,0.892-0.019,1.335-0.056c2.125-0.175,4.151-0.764,5.86-1.702
		c2.016-1.108,3.518-2.649,4.381-4.485l29.068-0.394c0.846,1.734,2.278,3.189,4.18,4.235c1.683,0.926,3.703,1.499,5.839,1.655
		c2.04,0.153,4.162-0.099,6.02-0.707c3.802-1.241,6.369-3.791,7.226-7.18C77.61,50.913,77.77,45.972,77.742,42.464 M74.754,54.043
		c-0.684,2.7-2.782,4.749-5.91,5.771c-1.613,0.527-3.466,0.74-5.252,0.613c-1.851-0.136-3.588-0.624-5.022-1.413
		c-1.716-0.946-2.948-2.278-3.561-3.854l-0.252-0.646l-31.76,0.429l-0.241,0.639c-0.626,1.665-1.92,3.074-3.741,4.075
		c-1.464,0.804-3.215,1.31-5.062,1.462c-1.805,0.15-3.671-0.056-5.278-0.579c-3-0.975-5.018-2.949-5.685-5.56
		c-0.674-2.641-1.024-6.738-0.987-11.535c0.04-5.107,0.524-10.531,1.176-13.19c0.624-2.528,1.54-4.342,2.972-5.879
		c1.277-1.372,2.852-2.404,5.14-3.722c1.445-0.833,2.642-3.709,4.304-8.001c0.801-2.07,1.557-4.026,2.339-5.205
		c0.394-0.594,0.964-1.145,1.693-1.637c3.212-2.17,10.749-3.662,19.2-3.8c0.417-0.007,0.835-0.01,1.253-0.01
		c8.059,0,14.966,1.259,18.026,3.288c0.732,0.485,1.304,1.029,1.7,1.616c0.789,1.168,1.546,3.103,2.346,5.151
		c1.654,4.232,2.845,7.066,4.28,7.853c2.279,1.251,3.852,2.241,5.151,3.602c1.437,1.504,2.357,3.3,2.983,5.821
		c0.653,2.643,1.136,8.05,1.176,13.148C75.78,47.272,75.429,51.378,74.754,54.043"/>
	
		<line clip-path="url(#SVGID_2_)" fill="none" stroke="#000000" stroke-width="2" stroke-linecap="round" stroke-linejoin="round" stroke-miterlimit="10" x1="38.885" y1="14.893" x2="38.885" y2="43.893"/>
	
		<line clip-path="url(#SVGID_2_)" fill="none" stroke="#000000" stroke-width="2" stroke-linecap="round" stroke-linejoin="round" stroke-miterlimit="10" x1="53.385" y1="29.393" x2="24.385" y2="29.393"/>
</g>
</svg>
