<svg xmlns="http://www.w3.org/2000/svg" xmlns:xlink="http://www.w3.org/1999/xlink" version="1.1" enable-background="new 0 0 100 100" xml:space="preserve" width="76" height="76"><rect id="backgroundrect" width="100%" height="100%" x="0" y="0" fill="none" stroke="none" class=""/><g class="currentLayer"><title>Layer 1</title><g id="svg_1" class=""><path d="M38,0 c-20.953,0 -38,17.047 -38,38 s17.047,38 38,38 s38,-17.047 38,-38 S58.953,0 38,0 zM38,70 c-17.645,0 -32,-14.355 -32,-32 c0,-17.645 14.355,-32 32,-32 c17.645,0 32,14.355 32,32 C70,55.644999999999996 55.644999999999996,70 38,70 z" id="svg_2"/><polygon points="53.97699737548828,22.027999877929688 29.875999450683594,46.124000549316406 22.9010009765625,39.15399932861328 15.930000305175781,46.124000549316406 22.9010009765625,53.0989990234375 29.87099838256836,60.06999969482422 36.84600067138672,53.09400177001953 60.946998596191406,28.999000549316406 " id="svg_3"/></g></g></svg>