<?xml version="1.0" encoding="utf-8"?>
<!-- Generator: Adobe Illustrator 17.1.0, SVG Export Plug-In . SVG Version: 6.00 Build 0)  -->
<!DOCTYPE svg PUBLIC "-//W3C//DTD SVG 1.1//EN" "http://www.w3.org/Graphics/SVG/1.1/DTD/svg11.dtd">
<svg version="1.1" id="Layer_2" xmlns="http://www.w3.org/2000/svg" xmlns:xlink="http://www.w3.org/1999/xlink" x="0px" y="0px"
	 viewBox="0 0 55 75" enable-background="new 0 0 55 75" xml:space="preserve">
<g>
	<g>
		<path d="M40,18H22c-0.552,0-1,0.448-1,1c0,0.552,0.448,1,1,1h18c0.552,0,1-0.448,1-1C41,18.448,40.552,18,40,18z"/>
		<circle cx="43" cy="19" r="1"/>
		<path d="M18.716,14.244l-6.888,6.889l-3.776-3.776c-0.391-0.391-1.023-0.391-1.414,0s-0.391,1.023,0,1.414l4.483,4.483
			c0.188,0.188,0.442,0.293,0.707,0.293s0.52-0.105,0.707-0.293l7.595-7.596c0.391-0.391,0.391-1.023,0-1.414
			S19.107,13.854,18.716,14.244z"/>
	</g>
	<g>
		<path d="M40,30H22c-0.552,0-1,0.448-1,1c0,0.552,0.448,1,1,1h18c0.552,0,1-0.448,1-1C41,30.448,40.552,30,40,30z"/>
		<circle cx="43" cy="31" r="1"/>
		<path d="M18.716,26.244l-6.888,6.889l-3.776-3.776c-0.391-0.391-1.023-0.391-1.414,0s-0.391,1.023,0,1.414l4.483,4.483
			c0.188,0.188,0.442,0.293,0.707,0.293s0.52-0.105,0.707-0.293l7.595-7.596c0.391-0.391,0.391-1.023,0-1.414
			S19.107,25.854,18.716,26.244z"/>
	</g>
	<g>
		<path d="M40,43H22c-0.552,0-1,0.448-1,1c0,0.552,0.448,1,1,1h18c0.552,0,1-0.448,1-1C41,43.448,40.552,43,40,43z"/>
		<circle cx="43" cy="44" r="1"/>
		<path d="M18.716,39.244l-6.888,6.889l-3.776-3.776c-0.391-0.391-1.023-0.391-1.414,0s-0.391,1.023,0,1.414l4.483,4.483
			c0.188,0.188,0.442,0.293,0.707,0.293s0.52-0.105,0.707-0.293l7.595-7.596c0.391-0.391,0.391-1.023,0-1.414
			S19.107,38.854,18.716,39.244z"/>
	</g>
	<path d="M51.5,1h-47C2.291,1,0,2.291,0,4.5v66C0,72.709,2.291,75,4.5,75H40h2l13-13v-2V4.5C55,2.291,53.709,1,51.5,1z M40,64.5V73
		H4.5C3.397,73,2,71.603,2,70.5v-66C2,3.397,3.397,3,4.5,3H51h0.5C52.603,3,53,3.397,53,4.5V60h-9.5C40,60,40,62.291,40,64.5z
		 M42,72.205V64.5c0-1.103,0-2.5,1.5-2.5h8.625L42,72.205z"/>
</g>
</svg>
