<?xml version="1.0" encoding="utf-8"?>
<!-- Generator: Adobe Illustrator 17.1.0, SVG Export Plug-In . SVG Version: 6.00 Build 0)  -->
<!DOCTYPE svg PUBLIC "-//W3C//DTD SVG 1.1//EN" "http://www.w3.org/Graphics/SVG/1.1/DTD/svg11.dtd">
<svg version="1.1" id="Layer_2" xmlns="http://www.w3.org/2000/svg" xmlns:xlink="http://www.w3.org/1999/xlink" x="0px" y="0px"
	 viewBox="0 0 75 75" enable-background="new 0 0 75 75" xml:space="preserve">
<g>
	<path fill="#231F20" d="M37.769,1.88c9.925,0,18,8.075,18,18s-8.075,18-18,18s-18-8.075-18-18S27.844,1.88,37.769,1.88
		 M37.769-0.12c-11.046,0-20,8.954-20,20s8.954,20,20,20c11.046,0,20-8.954,20-20S48.815-0.12,37.769-0.12L37.769-0.12z"/>
	<path fill="none" stroke="#231F20" stroke-width="2" stroke-linecap="round" stroke-linejoin="round" stroke-miterlimit="10" d="
		M1.772,74.348c0.688-19.288,16.542-34.713,35.997-34.713c19.453,0,35.304,15.42,35.997,34.703"/>
	<path fill="none" stroke="#231F20" stroke-width="2" stroke-linecap="round" stroke-linejoin="round" stroke-miterlimit="10" d="
		M45.476,48.838"/>
	<path fill="none" stroke="#231F20" stroke-width="2" stroke-linecap="round" stroke-linejoin="round" stroke-miterlimit="10" d="
		M31.283,48.513c2.08-0.503,4.252-0.769,6.486-0.769c2.675,0,5.262,0.382,7.707,1.095"/>
	<path fill="none" stroke="#231F20" stroke-width="2" stroke-linecap="round" stroke-linejoin="round" stroke-miterlimit="10" d="
		M10.892,69.409c1.768-8.187,7.182-15.018,14.458-18.708"/>
</g>
</svg>
