<svg xmlns="http://www.w3.org/2000/svg" width="253" height="508" viewBox="0 0 253 508">
  <metadata><?xpacket begin="﻿" id="W5M0MpCehiHzreSzNTczkc9d"?>
<x:xmpmeta xmlns:x="adobe:ns:meta/" x:xmptk="Adobe XMP Core 5.6-c138 79.159824, 2016/09/14-01:09:01        ">
   <rdf:RDF xmlns:rdf="http://www.w3.org/1999/02/22-rdf-syntax-ns#">
      <rdf:Description rdf:about=""/>
   </rdf:RDF>
</x:xmpmeta>
                                                                                                    
                                                                                                    
                                                                                                    
                                                                                                    
                                                                                                    
                                                                                                    
                                                                                                    
                                                                                                    
                                                                                                    
                                                                                                    
                                                                                                    
                                                                                                    
                                                                                                    
                                                                                                    
                                                                                                    
                                                                                                    
                                                                                                    
                                                                                                    
                                                                                                    
                                                                                                    
                           
<?xpacket end="w"?></metadata>
<defs>
    <style>
      .cls-1 {
        fill: #fff;
        fill-rule: evenodd;
      }
    </style>
  </defs>
  <path id="Фигура_767" data-name="Фигура 767" class="cls-1" d="M774.785,1418.1H590.472a28.518,28.518,0,0,1-28.509-28.46V947.978a28.515,28.515,0,0,1,28.509-28.457H774.785a28.515,28.515,0,0,1,28.509,28.457V1389.64A28.519,28.519,0,0,1,774.785,1418.1ZM590.472,920.292a27.743,27.743,0,0,0-27.737,27.686V1389.64a27.744,27.744,0,0,0,27.737,27.69H774.785a27.744,27.744,0,0,0,27.737-27.69V947.978a27.743,27.743,0,0,0-27.737-27.686H590.472Zm91.689,14.429a3.116,3.116,0,1,1,3.121-3.116A3.122,3.122,0,0,1,682.161,934.721Zm0-5.46a2.345,2.345,0,1,0,2.349,2.344A2.348,2.348,0,0,0,682.161,929.261Zm-33.6,21.06a4.287,4.287,0,1,1,4.294-4.287A4.3,4.3,0,0,1,648.561,950.321Zm0-7.8a3.516,3.516,0,1,0,3.521,3.515A3.523,3.523,0,0,0,648.561,942.519Zm47.957,5.461H667.413a2.238,2.238,0,1,1,0-4.476h29.105A2.238,2.238,0,1,1,696.518,947.98Zm-29.105-3.705a1.467,1.467,0,1,0,0,2.934h29.105a1.467,1.467,0,1,0,0-2.934H667.413Zm15.215,462.615a14.625,14.625,0,1,1,14.651-14.63A14.655,14.655,0,0,1,682.628,1406.89Zm0-28.48a13.855,13.855,0,1,0,13.878,13.85A13.878,13.878,0,0,0,682.628,1378.41Zm0,31.35a17.5,17.5,0,1,1,17.529-17.5A17.534,17.534,0,0,1,682.628,1409.76Zm0-34.22a16.725,16.725,0,1,0,16.757,16.72A16.758,16.758,0,0,0,682.628,1375.54ZM558.394,994.621h-3.007V973.983h3.007v20.638Zm-2.235-.771h1.462v-19.1h-1.462v19.1Zm2.235,51.41h-3.007v-32.49h3.007v32.49Zm-2.235-.77h1.462v-30.95h-1.462v30.95Zm2.235,39.56h-3.007v-32.49h3.007v32.49Zm-2.235-.77h1.462v-30.95h-1.462v30.95Zm16.75,280.97-0.674-.38m220.837,0.57H572.186V973.26H793.072v391.18Zm-220.114-.77H792.3V974.032H572.958V1363.67Zm205.132,59.32H587.166a29.912,29.912,0,0,1-29.906-29.85V1084.43H555v-33.25h2.26v-5.54H555v-33.26h2.26V995.006H555V973.6h2.26V944.835a29.911,29.911,0,0,1,29.906-29.849H778.09A29.911,29.911,0,0,1,808,944.835V1393.14A29.912,29.912,0,0,1,778.09,1422.99Zm-221.545-340.1h2.26v310.25a28.368,28.368,0,0,0,28.361,28.31H778.09a28.369,28.369,0,0,0,28.362-28.31V944.835a28.368,28.368,0,0,0-28.362-28.308H587.166A28.367,28.367,0,0,0,558.8,944.835v30.3h-2.26v18.325h2.26v20.465h-2.26v30.17h2.26v8.62h-2.26v30.17Z" transform="translate(-555 -915)"/>
</svg>
